<svg xmlns="http://www.w3.org/2000/svg" width="1400" height="720" viewBox="0 0 1400 720" role="img" aria-labelledby="title desc">
  <title id="title">Moon Ritual Atlas hero preview</title>
  <desc id="desc">Editorial preview graphic for the Moon Ritual Atlas showing a moon, ritual cards, and Dawn/Dusk atmosphere.</desc>
  <defs>
    <linearGradient id="bg" x1="0" y1="0" x2="1" y2="1">
      <stop offset="0" stop-color="#0c0e1c"/>
      <stop offset="0.45" stop-color="#171327"/>
      <stop offset="1" stop-color="#f1ded2"/>
    </linearGradient>
    <radialGradient id="glow" cx="50%" cy="45%" r="55%">
      <stop offset="0" stop-color="#f6f0e5" stop-opacity="0.85"/>
      <stop offset="0.38" stop-color="#d9d9d3" stop-opacity="0.18"/>
      <stop offset="1" stop-color="#ffffff" stop-opacity="0"/>
    </radialGradient>
    <filter id="shadow" x="-20%" y="-20%" width="140%" height="140%">
      <feDropShadow dx="0" dy="26" stdDeviation="24" flood-color="#000000" flood-opacity="0.28"/>
    </filter>
    <pattern id="grid" width="42" height="42" patternUnits="userSpaceOnUse">
      <path d="M42 0H0V42" fill="none" stroke="#ffffff" stroke-opacity="0.08" stroke-width="1"/>
    </pattern>
  </defs>
  <rect width="1400" height="720" rx="44" fill="url(#bg)"/>
  <rect width="1400" height="720" rx="44" fill="url(#grid)"/>
  <circle cx="1080" cy="130" r="260" fill="url(#glow)"/>
  <g opacity="0.65">
    <circle cx="166" cy="104" r="2" fill="#f6f0e5"/>
    <circle cx="262" cy="164" r="1.5" fill="#f6f0e5"/>
    <circle cx="406" cy="86" r="1.2" fill="#f6f0e5"/>
    <circle cx="1210" cy="214" r="1.5" fill="#f6f0e5"/>
    <path d="M498 150v22M487 161h22" stroke="#f6f0e5" stroke-width="2" stroke-linecap="round"/>
  </g>
  <g transform="translate(86 78)">
    <text x="0" y="0" fill="#d7d2c8" font-family="Inter, system-ui, sans-serif" font-size="18" letter-spacing="8">CURRENT EXPERIENCE</text>
    <text x="0" y="78" fill="#f8f4eb" font-family="Georgia, serif" font-size="82" font-weight="500">Moon Ritual Atlas</text>
    <text x="0" y="132" fill="#d7d2c8" font-family="Georgia, serif" font-size="34" font-style="italic">Full Moon in Capricorn · Money, maturity, and self-authority</text>
    <g transform="translate(0 188)">
      <rect x="0" y="0" width="190" height="48" rx="24" fill="#f8f4eb"/>
      <text x="30" y="31" fill="#171923" font-family="Inter, system-ui, sans-serif" font-size="16" font-weight="700">Open live site</text>
    </g>
    <g transform="translate(212 188)">
      <rect x="0" y="0" width="186" height="48" rx="24" fill="none" stroke="#f8f4eb" stroke-opacity="0.5"/>
      <text x="28" y="31" fill="#f8f4eb" font-family="Inter, system-ui, sans-serif" font-size="16" font-weight="600">Browse rituals</text>
    </g>
  </g>
  <g filter="url(#shadow)" transform="translate(800 270)">
    <rect x="54" y="-42" width="380" height="310" rx="34" fill="#fafaf6" opacity="0.78"/>
    <rect x="24" y="-16" width="420" height="332" rx="36" fill="#f3f3ef" opacity="0.92"/>
    <rect x="0" y="14" width="460" height="344" rx="38" fill="#ffffff" opacity="0.94"/>
    <circle cx="82" cy="96" r="58" fill="#f9f9f6" stroke="#d3d4d4" stroke-width="2"/>
    <path d="M58 106l38-56 17 25 15-18 42 49z" fill="none" stroke="#2a3038" stroke-width="6" stroke-linejoin="round" stroke-linecap="round"/>
    <rect x="58" y="182" width="144" height="38" rx="19" fill="#f5f5f2" stroke="#cfd1d2"/>
    <text x="78" y="207" fill="#2a3038" font-family="Inter, system-ui, sans-serif" font-size="16" font-weight="800" letter-spacing="4">STEP 01</text>
    <text x="58" y="282" fill="#22262d" font-family="Georgia, serif" font-size="54" font-weight="700">Gather the</text>
    <text x="58" y="338" fill="#22262d" font-family="Georgia, serif" font-size="54" font-weight="700">elements</text>
  </g>
  <g transform="translate(92 600)" opacity="0.78">
    <rect x="0" y="0" width="158" height="8" rx="4" fill="#f8f4eb"/>
    <rect x="176" y="0" width="158" height="8" rx="4" fill="#f8f4eb" opacity="0.35"/>
    <rect x="352" y="0" width="158" height="8" rx="4" fill="#f8f4eb" opacity="0.35"/>
  </g>
</svg>
