<svg xmlns="http://www.w3.org/2000/svg" width="1400" height="620" viewBox="0 0 1400 620" role="img" aria-labelledby="title desc">
  <title id="title">Moon Ritual Atlas ritual flow preview</title>
  <desc id="desc">Preview of the ritual index, ritual paths, and notecard ritual page flow.</desc>
  <defs>
    <linearGradient id="paper" x1="0" y1="0" x2="1" y2="1"><stop offset="0" stop-color="#ffffff"/><stop offset="1" stop-color="#f1f2f0"/></linearGradient>
    <linearGradient id="dark" x1="0" y1="0" x2="1" y2="1"><stop offset="0" stop-color="#171923"/><stop offset="1" stop-color="#30343c"/></linearGradient>
    <filter id="s" x="-20%" y="-20%" width="140%" height="140%"><feDropShadow dx="0" dy="18" stdDeviation="20" flood-color="#101218" flood-opacity="0.18"/></filter>
    <pattern id="grid" width="38" height="38" patternUnits="userSpaceOnUse"><path d="M38 0H0V38" fill="none" stroke="#2a3038" stroke-opacity="0.055" stroke-width="1"/></pattern>
  </defs>
  <rect width="1400" height="620" rx="42" fill="#f6f6f2"/>
  <rect width="1400" height="620" rx="42" fill="url(#grid)"/>
  <text x="70" y="88" fill="#2a3038" font-family="Inter, system-ui, sans-serif" font-size="18" font-weight="800" letter-spacing="7">RITUAL SYSTEM</text>
  <text x="70" y="144" fill="#20242a" font-family="Georgia, serif" font-size="56" font-weight="700">Choose a path. Open a card. Take the receipt.</text>
  <g transform="translate(72 214)">
    <g filter="url(#s)">
      <rect width="270" height="250" rx="30" fill="url(#paper)" stroke="#d1d3d4"/>
      <circle cx="56" cy="58" r="32" fill="#fafaf6" stroke="#d1d3d4"/>
      <path d="M42 65l21-32 11 16 9-11 28 27z" fill="none" stroke="#2a3038" stroke-width="4" stroke-linejoin="round"/>
      <text x="36" y="130" fill="#20242a" font-family="Georgia, serif" font-size="30" font-weight="700">Core Capricorn</text>
      <text x="36" y="170" fill="#59606a" font-family="Inter, system-ui, sans-serif" font-size="18">Mountain · Authority · Audit</text>
      <rect x="36" y="202" width="126" height="34" rx="17" fill="#20242a"/><text x="58" y="225" fill="#fff" font-family="Inter" font-size="15" font-weight="700">Open path</text>
    </g>
    <g transform="translate(310 0)" filter="url(#s)">
      <rect width="270" height="250" rx="30" fill="url(#paper)" stroke="#d1d3d4"/>
      <circle cx="56" cy="58" r="32" fill="#fafaf6" stroke="#d1d3d4"/>
      <circle cx="60" cy="60" r="21" fill="none" stroke="#2a3038" stroke-width="4"/><path d="M60 43v34M43 60h34" stroke="#2a3038" stroke-width="3"/>
      <text x="36" y="130" fill="#20242a" font-family="Georgia, serif" font-size="30" font-weight="700">Money Rituals</text>
      <text x="36" y="170" fill="#59606a" font-family="Inter, system-ui, sans-serif" font-size="18">Paid gifts · Work reset · Receipt</text>
      <rect x="36" y="202" width="126" height="34" rx="17" fill="#20242a"/><text x="58" y="225" fill="#fff" font-family="Inter" font-size="15" font-weight="700">Open path</text>
    </g>
    <g transform="translate(620 0)" filter="url(#s)">
      <rect width="270" height="250" rx="30" fill="url(#paper)" stroke="#d1d3d4"/>
      <circle cx="56" cy="58" r="32" fill="#fafaf6" stroke="#d1d3d4"/>
      <path d="M45 78c34-18 34-48 0-58M62 78c34-18 34-48 0-58" fill="none" stroke="#2a3038" stroke-width="4" stroke-linecap="round"/>
      <text x="36" y="130" fill="#20242a" font-family="Georgia, serif" font-size="30" font-weight="700">Deep Pattern</text>
      <text x="36" y="170" fill="#59606a" font-family="Inter, system-ui, sans-serif" font-size="18">Inner adult · Belonging · Speech</text>
      <rect x="36" y="202" width="126" height="34" rx="17" fill="#20242a"/><text x="58" y="225" fill="#fff" font-family="Inter" font-size="15" font-weight="700">Open path</text>
    </g>
    <g transform="translate(930 0)" filter="url(#s)">
      <rect width="270" height="250" rx="30" fill="url(#dark)" stroke="#d1d3d4"/>
      <text x="36" y="62" fill="#f6f6f2" font-family="Inter, system-ui, sans-serif" font-size="16" font-weight="800" letter-spacing="4">CAPRICORN RECEIPT</text>
      <text x="36" y="128" fill="#ffffff" font-family="Georgia, serif" font-size="34" font-weight="700">Make the ritual material.</text>
      <path d="M38 166h190M38 198h140M38 230h178" stroke="#f6f6f2" stroke-width="6" stroke-linecap="round" opacity="0.72"/>
    </g>
  </g>
  <g transform="translate(74 520)">
    <circle cx="0" cy="0" r="8" fill="#20242a"/><path d="M16 0H1220" stroke="#20242a" stroke-width="2" stroke-opacity="0.2"/>
    <circle cx="420" cy="0" r="8" fill="#20242a" opacity="0.45"/><circle cx="820" cy="0" r="8" fill="#20242a" opacity="0.3"/><circle cx="1220" cy="0" r="8" fill="#20242a" opacity="0.2"/>
    <text x="0" y="44" fill="#59606a" font-family="Inter, system-ui, sans-serif" font-size="16">Path Finder</text>
    <text x="390" y="44" fill="#59606a" font-family="Inter, system-ui, sans-serif" font-size="16">Ritual Index</text>
    <text x="778" y="44" fill="#59606a" font-family="Inter, system-ui, sans-serif" font-size="16">Notecard Ritual</text>
    <text x="1160" y="44" fill="#59606a" font-family="Inter, system-ui, sans-serif" font-size="16">Receipt</text>
  </g>
</svg>
